PathFileType	4	(X/Y/Z)	Patient4_TMGait_0pt8_01_right_06.trc.trc
DataRate	CameraRate	NumFrames	NumMarkers	Units	OrigDataRate	OrigDataStartFrame	OrigNumFrames
88.050314465409	88.050314465409	5	33	mm	88.050314465409	36	       141
Frame#	Time	Sacral			L.Shoulder			Chest			R.Shoulder			Neck			R.ASIS			L.ASIS			R.Thigh.Superior			R.Thigh.Lateral			R.Thigh.Inferior			R.Patella			L.Thigh.Superior			L.Thigh.Lateral			L.Thigh.Inferior			L.Patella			L.Shank.Superior			L.Shank.Lateral			L.Shank.Inferior			R.Shank.Superior			R.Shank.Lateral			R.Shank.Inferior			R.Heel			R.Midfoot.Superior			R.Midfoot.Lateral			R.Toe			L.Heel			L.Midfoot.Lateral			L.Midfoot.Superior			L.Toe			L.Elbow			L.Wrist			R.Elbow			R.Wrist			
		X1	Y1	Z1	X2	Y2	Z2	X3	Y3	Z3	X4	Y4	Z4	X5	Y5	Z5	X6	Y6	Z6	X7	Y7	Z7	X8	Y8	Z8	X9	Y9	Z9	X10	Y10	Z10	X11	Y11	Z11	X12	Y12	Z12	X13	Y13	Z13	X14	Y14	Z14	X15	Y15	Z15	X16	Y16	Z16	X17	Y17	Z17	X18	Y18	Z18	X19	Y19	Z19	X20	Y20	Z20	X21	Y21	Z21	X22	Y22	Z22	X23	Y23	Z23	X24	Y24	Z24	X25	Y25	Z25	X26	Y26	Z26	X27	Y27	Z27	X28	Y28	Z28	X29	Y29	Z29	X30	Y30	Z30	X31	Y31	Z31	X32	Y32	Z32	X33	Y33	Z33	

36	6.847500000000	850.538018215167	986.174688290883	504.278714668319	1044.345647708673	1419.348324029351	340.141052459972	1125.556221988967	1351.707662087649	513.784287490085	1016.903928246080	1421.263044752464	675.371329674687	1009.148082641392	1479.371004729291	494.770359560367	1069.444074588595	933.900514129430	647.193655678545	1078.508293391804	941.733134191241	371.610410274078	1146.177690996299	752.100228390766	622.628296213580	1081.553285951374	631.997870917261	678.641742234306	1172.648769875233	592.703879602626	605.291623920598	1189.774289683396	503.222806413109	614.147378636982	1103.076191959358	717.309924971544	400.340790328732	1011.597009730807	607.888449160257	328.139535232705	1086.709860583804	517.893519452516	392.972532913496	1072.289380342931	433.347286995160	389.734006147098	1000.184745902573	379.654665454592	378.933023245149	860.417310642339	345.128469915294	322.401467011730	834.664373663352	218.995370165091	378.080487068695	1167.601851328957	411.081748718010	619.860040972078	1101.795893010200	302.612959339658	679.285256067351	1154.044522831781	210.541278544516	620.426726851553	1031.551801375957	43.732687642635	586.760942262046	1200.680406484026	98.728268806740	628.200451559588	1112.367361912651	36.910699679370	664.862672743297	1320.489852540216	47.754612483433	659.710844957319	640.593661091575	160.371835907218	411.503701280179	697.640314068221	117.667689835155	330.321169924722	800.723070227595	123.812739163486	353.592906851244	877.637557503641	31.117769058317	321.769618801687	1118.305234836668	1086.126564932323	205.074191557578	1366.706392615043	1077.647235693632	262.438885932197	883.144606254753	1097.279463283259	769.323251675932	852.899126256673	839.593827159103	790.044203203483	
37	6.858857142857	850.353081164420	987.743474721161	507.762101703853	1043.361307162089	1420.304674455684	341.320342971547	1125.602408761223	1353.207554868114	514.717720694377	1017.845161071167	1423.237949864825	676.609307910181	1009.172212040988	1480.769493412410	495.875044076880	1069.665069312878	935.766961663227	649.973633963736	1077.732500155869	942.654277473235	374.522325184991	1144.517290043266	751.725832084357	626.142107997789	1077.763409450421	632.160268309708	680.803043295401	1168.675312940844	592.068894832449	607.545621533258	1184.563990031719	502.475069018018	615.482506188956	1107.861525867041	720.311108415972	403.807557027254	1021.182654414467	608.447519197218	330.528922390671	1099.026096096292	520.322608904848	395.726023565421	1085.937560952882	434.614466382701	391.877073350186	1012.089523084127	381.132761623006	380.840983718925	870.940645256585	352.019729173517	324.299693413186	841.081928624943	226.224189479855	378.982608866290	1161.555120946383	410.631800292265	621.111752014051	1094.868882578761	302.603389669408	680.147562132344	1146.093378390484	210.234601039501	620.908122994904	1022.541912434709	43.676841997205	586.968004576147	1191.523893189515	98.804493644950	628.295969878448	1103.302312142116	36.971654144203	665.070318319594	1311.358892943067	47.928001124903	660.044915434904	644.859859399853	178.352866784210	411.885148719093	699.288030872990	131.752552212785	330.780247426554	802.860899784557	130.085522136609	354.456690127746	871.979831988304	30.185244976325	322.738421649075	1112.473528043816	1084.285934879758	209.509386324638	1361.029917983361	1067.373967678628	266.039448481526	889.937994794542	1096.325100347453	772.105284843400	870.071319375997	837.361899819404	792.007054612915	
38	6.870214285714	850.007268765528	989.283525227094	511.244353190083	1042.070294522625	1421.131348239426	342.365000144694	1125.543783377059	1354.591974470002	515.419233419743	1018.878136715124	1425.123687591334	677.743307607110	1009.093570821065	1482.070343763916	496.900909531930	1069.770673774227	937.466763356913	652.476231849425	1076.671704846643	943.545708682695	377.247882302885	1142.491009946865	751.148349924655	629.441058141717	1073.688304935006	632.264623827406	682.885372172584	1164.326240171311	591.349124331170	609.670866680308	1178.925317366518	501.676397740059	616.807043649050	1112.417714274410	723.598978114597	406.955170482611	1030.439771948253	609.546874067328	332.649817723172	1110.920112885163	523.381567095239	398.201256508480	1099.360790221988	436.619181431930	393.923765890038	1024.067256760709	383.209183468490	382.662826316482	881.832858142007	358.914635464763	326.142544720564	848.386160891115	233.487948149038	379.966708203871	1155.177899729524	410.138901550818	622.331086647838	1087.701065845051	302.507363522169	680.988303985077	1137.998178100027	209.902269100285	621.379108935808	1013.490348136401	43.621241407169	587.145746115466	1182.371233627484	98.825020320825	628.410841720128	1094.202039517113	36.983714226802	665.247208704575	1302.216014357438	47.983663345061	660.339488281635	650.615583818447	195.323131824309	412.333915087871	702.634153883632	145.327070438449	331.347835547262	806.343708785710	136.595081244054	355.524213613613	868.186619109287	29.642909308097	323.852485790881	1106.408850256381	1082.444201659785	213.838684199210	1354.847433908136	1056.009152299215	269.324509609982	896.710496854402	1095.578711872119	775.074421467108	888.519485388435	835.638996123385	793.906002119050	
39	6.881571428571	849.506460635996	990.771356711135	514.688930103316	1040.518808267802	1421.811576577598	343.279008096218	1125.390833443303	1355.827162426200	515.902565526805	1020.004817358577	1426.887973583801	678.782344882585	1008.941047156173	1483.269105994512	497.850857916860	1069.766733487001	938.992139622990	654.715178880666	1075.345357401871	944.389303155611	379.758582186972	1140.176367181779	750.454341503814	632.432090027202	1069.482845013964	632.359457566760	684.885489608669	1159.709931832612	590.584195851690	611.627952999654	1172.977546431783	500.859242937066	618.109074387788	1116.664670659118	727.160142677738	409.768617551718	1039.220105579512	611.203645123105	334.492425492684	1122.254341576839	527.064171688117	400.337250131786	1112.421284173496	439.355671683902	395.765043803966	1035.983212684897	385.869809331817	384.324853783787	892.918575007119	365.627153206234	327.897774968124	856.548183613949	240.523843055245	380.993489003440	1148.585280719934	409.621598008008	623.495862195979	1080.407321134187	302.357044938564	681.827023603638	1129.826783921262	209.555554614952	621.830746921587	1004.397388929243	43.579275136660	587.312830186936	1173.244581697882	98.784771475657	628.554620717220	1085.073991178733	36.961462294254	665.407205289671	1293.075456743625	47.909764282278	660.588832380255	657.765888252307	210.528547630447	412.872270011659	707.724400389371	157.745699322619	332.029711769389	811.319303645772	143.059204269345	356.716250394434	866.811283950424	29.621786356829	325.049114458118	1100.181793248657	1080.576448147857	218.057733029270	1348.089001286651	1043.556284084381	272.244966499237	903.498967189061	1094.990075141687	778.212072492236	908.164502113171	834.560915768185	795.707025151415	
40	6.892928571429	848.859082823400	992.194276767546	518.069212750499	1038.758372041100	1422.349284279041	344.072676751661	1125.150072883732	1356.902610762669	516.191323265455	1021.210516419458	1428.521967763741	679.732350040375	1008.736829306896	1484.374304286062	498.725590242891	1069.663791110177	940.350626141308	656.716683686668	1073.785568161497	945.186839738504	382.030152582773	1137.650255706915	749.719260155900	635.056164898296	1065.247522511475	632.474209047202	686.786074268581	1154.911452615888	589.802396597920	613.387121750803	1166.816496175371	500.048237565060	619.352078762021	1120.542207017301	730.981944005407	412.250504697952	1047.425002073426	613.411905458009	336.051137294624	1132.944756995700	531.347555515388	402.083683876657	1125.023407328361	442.805534929384	397.298730213881	1047.754160642695	389.077626302359	385.751561951765	904.066005223126	371.959246565925	329.533900169347	865.579950415965	247.058500209639	382.019980218833	1141.865808594307	409.097082104226	624.581409873759	1073.063424872070	302.182189828915	682.662797491680	1121.627869204817	209.206781945538	622.252421305886	995.268010192131	43.556362281938	587.481798956016	1164.152577462939	98.690700919883	628.727893477053	1075.927030437609	36.920483173154	665.560594286991	1283.945106559137	47.724908740177	660.795191159473	666.234448963319	223.278285457494	413.536511718516	714.593526516383	168.411371139567	332.826419150195	817.949212904340	149.163705937896	357.940594564658	868.380071581893	30.193743556277	326.227708792951	1093.855901788696	1078.679437584477	222.171981730642	1340.656413085980	1030.024634758505	274.759868667963	910.365473443102	1094.516954086705	781.489097578031	928.934891537136	834.278917584510	797.372550797174	
